<?xml version="1.0" encoding="utf-8" standalone="no"?>
<!DOCTYPE svg PUBLIC "-//W3C//DTD SVG 1.1//EN"
  "http://www.w3.org/Graphics/SVG/1.1/DTD/svg11.dtd">
<svg xmlns:xlink="http://www.w3.org/1999/xlink" width="806.4pt" height="417.6pt" viewBox="0 0 806.4 417.6" xmlns="http://www.w3.org/2000/svg" version="1.1">
 <metadata>
  <rdf:RDF xmlns:dc="http://purl.org/dc/elements/1.1/" xmlns:cc="http://creativecommons.org/ns#" xmlns:rdf="http://www.w3.org/1999/02/22-rdf-syntax-ns#">
   <cc:Work>
    <dc:type rdf:resource="http://purl.org/dc/dcmitype/StillImage"/>
    <dc:format>image/svg+xml</dc:format>
    <dc:creator>
     <cc:Agent>
      <dc:title>crypto_carry</dc:title>
     </cc:Agent>
    </dc:creator>
   </cc:Work>
  </rdf:RDF>
 </metadata>
 <defs>
  <style type="text/css">*{stroke-linejoin: round; stroke-linecap: butt}</style>
 </defs>
 <g id="figure_1">
  <g id="patch_1">
   <path d="M 0 417.6 
L 806.4 417.6 
L 806.4 0 
L 0 0 
z
" style="fill: #ffffff"/>
  </g>
  <g id="axes_1">
   <g id="patch_2">
    <path d="M 54.646334 383.598655 
L 803.39976 383.598655 
L 803.39976 40.727829 
L 54.646334 40.727829 
z
" style="fill: #ffffff"/>
   </g>
   <g id="matplotlib.axis_1">
    <g id="xtick_1">
     <g id="line2d_1">
      <path d="M 88.68058 383.598655 
L 88.68058 40.727829 
" clip-path="url(#p2f04cbafb5)" style="fill: none; stroke: #b0b0b0; stroke-opacity: 0.2; stroke-width: 0.8; stroke-linecap: square"/>
     </g>
     <g id="line2d_2">
      <defs>
       <path id="m20c7384093" d="M 0 0 
L 0 3.5 
" style="stroke: #000000; stroke-width: 0.8"/>
      </defs>
      <g>
       <use xlink:href="#m20c7384093" x="88.68058" y="383.598655" style="stroke: #000000; stroke-width: 0.8"/>
      </g>
     </g>
     <g id="text_1">
      <text style="font-size: 10px; font-family: 'DejaVu Sans', 'Bitstream Vera Sans', 'Computer Modern Sans Serif', 'Lucida Grande', 'Verdana', 'Geneva', 'Lucid', 'Arial', 'Helvetica', 'Avant Garde', sans-serif; text-anchor: middle" x="88.68058" y="398.196311" transform="rotate(-0 88.68058 398.196311)">2022</text>
     </g>
    </g>
    <g id="xtick_2">
     <g id="line2d_3">
      <path d="M 234.484571 383.598655 
L 234.484571 40.727829 
" clip-path="url(#p2f04cbafb5)" style="fill: none; stroke: #b0b0b0; stroke-opacity: 0.2; stroke-width: 0.8; stroke-linecap: square"/>
     </g>
     <g id="line2d_4">
      <g>
       <use xlink:href="#m20c7384093" x="234.484571" y="383.598655" style="stroke: #000000; stroke-width: 0.8"/>
      </g>
     </g>
     <g id="text_2">
      <text style="font-size: 10px; font-family: 'DejaVu Sans', 'Bitstream Vera Sans', 'Computer Modern Sans Serif', 'Lucida Grande', 'Verdana', 'Geneva', 'Lucid', 'Arial', 'Helvetica', 'Avant Garde', sans-serif; text-anchor: middle" x="234.484571" y="398.196311" transform="rotate(-0 234.484571 398.196311)">2023</text>
     </g>
    </g>
    <g id="xtick_3">
     <g id="line2d_5">
      <path d="M 380.288562 383.598655 
L 380.288562 40.727829 
" clip-path="url(#p2f04cbafb5)" style="fill: none; stroke: #b0b0b0; stroke-opacity: 0.2; stroke-width: 0.8; stroke-linecap: square"/>
     </g>
     <g id="line2d_6">
      <g>
       <use xlink:href="#m20c7384093" x="380.288562" y="383.598655" style="stroke: #000000; stroke-width: 0.8"/>
      </g>
     </g>
     <g id="text_3">
      <text style="font-size: 10px; font-family: 'DejaVu Sans', 'Bitstream Vera Sans', 'Computer Modern Sans Serif', 'Lucida Grande', 'Verdana', 'Geneva', 'Lucid', 'Arial', 'Helvetica', 'Avant Garde', sans-serif; text-anchor: middle" x="380.288562" y="398.196311" transform="rotate(-0 380.288562 398.196311)">2024</text>
     </g>
    </g>
    <g id="xtick_4">
     <g id="line2d_7">
      <path d="M 526.492016 383.598655 
L 526.492016 40.727829 
" clip-path="url(#p2f04cbafb5)" style="fill: none; stroke: #b0b0b0; stroke-opacity: 0.2; stroke-width: 0.8; stroke-linecap: square"/>
     </g>
     <g id="line2d_8">
      <g>
       <use xlink:href="#m20c7384093" x="526.492016" y="383.598655" style="stroke: #000000; stroke-width: 0.8"/>
      </g>
     </g>
     <g id="text_4">
      <text style="font-size: 10px; font-family: 'DejaVu Sans', 'Bitstream Vera Sans', 'Computer Modern Sans Serif', 'Lucida Grande', 'Verdana', 'Geneva', 'Lucid', 'Arial', 'Helvetica', 'Avant Garde', sans-serif; text-anchor: middle" x="526.492016" y="398.196311" transform="rotate(-0 526.492016 398.196311)">2025</text>
     </g>
    </g>
    <g id="xtick_5">
     <g id="line2d_9">
      <path d="M 672.296007 383.598655 
L 672.296007 40.727829 
" clip-path="url(#p2f04cbafb5)" style="fill: none; stroke: #b0b0b0; stroke-opacity: 0.2; stroke-width: 0.8; stroke-linecap: square"/>
     </g>
     <g id="line2d_10">
      <g>
       <use xlink:href="#m20c7384093" x="672.296007" y="383.598655" style="stroke: #000000; stroke-width: 0.8"/>
      </g>
     </g>
     <g id="text_5">
      <text style="font-size: 10px; font-family: 'DejaVu Sans', 'Bitstream Vera Sans', 'Computer Modern Sans Serif', 'Lucida Grande', 'Verdana', 'Geneva', 'Lucid', 'Arial', 'Helvetica', 'Avant Garde', sans-serif; text-anchor: middle" x="672.296007" y="398.196311" transform="rotate(-0 672.296007 398.196311)">2026</text>
     </g>
    </g>
   </g>
   <g id="matplotlib.axis_2">
    <g id="ytick_1">
     <g id="line2d_11">
      <path d="M 54.646334 352.309186 
L 803.39976 352.309186 
" clip-path="url(#p2f04cbafb5)" style="fill: none; stroke: #b0b0b0; stroke-opacity: 0.2; stroke-width: 0.8; stroke-linecap: square"/>
     </g>
     <g id="line2d_12">
      <defs>
       <path id="m041c7ca3d5" d="M 0 0 
L -3.5 0 
" style="stroke: #000000; stroke-width: 0.8"/>
      </defs>
      <g>
       <use xlink:href="#m041c7ca3d5" x="54.646334" y="352.309186" style="stroke: #000000; stroke-width: 0.8"/>
      </g>
     </g>
     <g id="text_6">
      <text style="font-size: 10px; font-family: 'DejaVu Sans', 'Bitstream Vera Sans', 'Computer Modern Sans Serif', 'Lucida Grande', 'Verdana', 'Geneva', 'Lucid', 'Arial', 'Helvetica', 'Avant Garde', sans-serif; text-anchor: end" x="47.646334" y="356.108014" transform="rotate(-0 47.646334 356.108014)">−0.25</text>
     </g>
    </g>
    <g id="ytick_2">
     <g id="line2d_13">
      <path d="M 54.646334 293.109922 
L 803.39976 293.109922 
" clip-path="url(#p2f04cbafb5)" style="fill: none; stroke: #b0b0b0; stroke-opacity: 0.2; stroke-width: 0.8; stroke-linecap: square"/>
     </g>
     <g id="line2d_14">
      <g>
       <use xlink:href="#m041c7ca3d5" x="54.646334" y="293.109922" style="stroke: #000000; stroke-width: 0.8"/>
      </g>
     </g>
     <g id="text_7">
      <text style="font-size: 10px; font-family: 'DejaVu Sans', 'Bitstream Vera Sans', 'Computer Modern Sans Serif', 'Lucida Grande', 'Verdana', 'Geneva', 'Lucid', 'Arial', 'Helvetica', 'Avant Garde', sans-serif; text-anchor: end" x="47.646334" y="296.90875" transform="rotate(-0 47.646334 296.90875)">−0.20</text>
     </g>
    </g>
    <g id="ytick_3">
     <g id="line2d_15">
      <path d="M 54.646334 233.910658 
L 803.39976 233.910658 
" clip-path="url(#p2f04cbafb5)" style="fill: none; stroke: #b0b0b0; stroke-opacity: 0.2; stroke-width: 0.8; stroke-linecap: square"/>
     </g>
     <g id="line2d_16">
      <g>
       <use xlink:href="#m041c7ca3d5" x="54.646334" y="233.910658" style="stroke: #000000; stroke-width: 0.8"/>
      </g>
     </g>
     <g id="text_8">
      <text style="font-size: 10px; font-family: 'DejaVu Sans', 'Bitstream Vera Sans', 'Computer Modern Sans Serif', 'Lucida Grande', 'Verdana', 'Geneva', 'Lucid', 'Arial', 'Helvetica', 'Avant Garde', sans-serif; text-anchor: end" x="47.646334" y="237.709486" transform="rotate(-0 47.646334 237.709486)">−0.15</text>
     </g>
    </g>
    <g id="ytick_4">
     <g id="line2d_17">
      <path d="M 54.646334 174.711394 
L 803.39976 174.711394 
" clip-path="url(#p2f04cbafb5)" style="fill: none; stroke: #b0b0b0; stroke-opacity: 0.2; stroke-width: 0.8; stroke-linecap: square"/>
     </g>
     <g id="line2d_18">
      <g>
       <use xlink:href="#m041c7ca3d5" x="54.646334" y="174.711394" style="stroke: #000000; stroke-width: 0.8"/>
      </g>
     </g>
     <g id="text_9">
      <text style="font-size: 10px; font-family: 'DejaVu Sans', 'Bitstream Vera Sans', 'Computer Modern Sans Serif', 'Lucida Grande', 'Verdana', 'Geneva', 'Lucid', 'Arial', 'Helvetica', 'Avant Garde', sans-serif; text-anchor: end" x="47.646334" y="178.510223" transform="rotate(-0 47.646334 178.510223)">−0.10</text>
     </g>
    </g>
    <g id="ytick_5">
     <g id="line2d_19">
      <path d="M 54.646334 115.512131 
L 803.39976 115.512131 
" clip-path="url(#p2f04cbafb5)" style="fill: none; stroke: #b0b0b0; stroke-opacity: 0.2; stroke-width: 0.8; stroke-linecap: square"/>
     </g>
     <g id="line2d_20">
      <g>
       <use xlink:href="#m041c7ca3d5" x="54.646334" y="115.512131" style="stroke: #000000; stroke-width: 0.8"/>
      </g>
     </g>
     <g id="text_10">
      <text style="font-size: 10px; font-family: 'DejaVu Sans', 'Bitstream Vera Sans', 'Computer Modern Sans Serif', 'Lucida Grande', 'Verdana', 'Geneva', 'Lucid', 'Arial', 'Helvetica', 'Avant Garde', sans-serif; text-anchor: end" x="47.646334" y="119.310959" transform="rotate(-0 47.646334 119.310959)">−0.05</text>
     </g>
    </g>
    <g id="ytick_6">
     <g id="line2d_21">
      <path d="M 54.646334 56.312867 
L 803.39976 56.312867 
" clip-path="url(#p2f04cbafb5)" style="fill: none; stroke: #b0b0b0; stroke-opacity: 0.2; stroke-width: 0.8; stroke-linecap: square"/>
     </g>
     <g id="line2d_22">
      <g>
       <use xlink:href="#m041c7ca3d5" x="54.646334" y="56.312867" style="stroke: #000000; stroke-width: 0.8"/>
      </g>
     </g>
     <g id="text_11">
      <text style="font-size: 10px; font-family: 'DejaVu Sans', 'Bitstream Vera Sans', 'Computer Modern Sans Serif', 'Lucida Grande', 'Verdana', 'Geneva', 'Lucid', 'Arial', 'Helvetica', 'Avant Garde', sans-serif; text-anchor: end" x="47.646334" y="60.111695" transform="rotate(-0 47.646334 60.111695)">0.00</text>
     </g>
    </g>
    <g id="text_12">
     <text style="font-size: 10px; font-family: 'DejaVu Sans', 'Bitstream Vera Sans', 'Computer Modern Sans Serif', 'Lucida Grande', 'Verdana', 'Geneva', 'Lucid', 'Arial', 'Helvetica', 'Avant Garde', sans-serif; text-anchor: middle" x="10.598678" y="212.163242" transform="rotate(-90 10.598678 212.163242)">Drawdown (%)</text>
    </g>
   </g>
   <g id="line2d_23">
    <path d="M 88.68058 56.312867 
L 227.693701 56.312867 
L 228.093163 68.733233 
L 228.492626 59.745185 
L 228.892089 56.312867 
L 229.691015 56.312867 
L 230.090478 60.797386 
L 230.489941 57.076026 
L 230.889404 56.312867 
L 231.68833 56.312867 
L 232.087793 57.536305 
L 232.487256 61.984396 
L 232.886719 56.312867 
L 234.884034 56.312867 
L 235.283497 59.427818 
L 235.68296 56.312867 
L 237.280812 56.312867 
L 237.680275 61.136403 
L 238.079738 56.312867 
L 238.479201 56.312867 
L 238.878664 64.100601 
L 239.278127 56.312867 
L 239.67759 56.312867 
L 240.077053 116.926807 
L 240.476516 194.714071 
L 240.875979 121.539345 
L 241.275442 91.295312 
L 242.074368 62.974354 
L 242.473831 56.312867 
L 245.669535 56.312867 
L 246.068998 66.025377 
L 246.468461 56.312867 
L 251.262017 56.312867 
L 251.66148 66.64717 
L 252.060943 70.413058 
L 252.460406 56.312867 
L 252.859869 106.630472 
L 253.259332 116.406564 
L 253.658795 56.312867 
L 261.648055 56.312867 
L 262.047518 79.056079 
L 262.446981 72.820707 
L 262.846444 56.312867 
L 263.245907 122.091404 
L 263.64537 98.064104 
L 264.044832 56.312867 
L 265.642684 56.312867 
L 266.042147 70.247591 
L 266.44161 67.203145 
L 266.841073 58.706604 
L 267.240536 60.953293 
L 267.639999 56.312867 
L 360.315413 56.312867 
L 360.714876 96.612897 
L 361.114339 56.312867 
L 368.304673 56.312867 
L 368.704136 61.007547 
L 369.103599 62.85604 
L 369.503062 56.312867 
L 370.301988 56.312867 
L 370.701451 88.066586 
L 371.500376 56.312867 
L 383.084803 56.312867 
L 383.484266 78.791152 
L 383.883729 56.312867 
L 384.283192 56.312867 
L 384.682655 233.624118 
L 385.082118 233.787689 
L 388.677285 233.850107 
L 389.476211 233.941812 
L 395.468156 233.729539 
L 399.862249 233.347549 
L 400.261712 327.282808 
L 400.661175 315.300315 
L 401.060638 368.013617 
L 401.859564 305.463863 
L 402.259027 307.750015 
L 402.65849 273.364164 
L 403.057953 222.949991 
L 403.457416 126.382436 
L 403.856879 62.361322 
L 404.256342 56.312867 
L 406.253657 56.312867 
L 406.65312 57.145813 
L 407.052582 56.312867 
L 407.452045 56.312867 
L 407.851508 75.467789 
L 408.250971 56.312867 
L 411.846138 56.312867 
L 412.245601 67.896125 
L 412.645064 56.312867 
L 425.42788 56.312867 
L 425.827343 58.602188 
L 426.226806 56.312867 
L 426.626269 60.63546 
L 427.025732 56.312867 
L 429.42251 56.312867 
L 429.821973 61.628043 
L 430.221436 56.312867 
L 436.213381 56.312867 
L 436.612844 116.692072 
L 437.012307 78.23858 
L 437.41177 80.608194 
L 437.811233 56.312867 
L 450.993511 56.312867 
L 451.392974 68.904471 
L 451.792437 56.312867 
L 454.988141 56.312867 
L 455.387604 64.976392 
L 455.787067 56.312867 
L 456.585993 56.312867 
L 456.985456 57.221904 
L 457.384919 56.312867 
L 458.583308 56.312867 
L 458.982771 57.053737 
L 459.382234 56.312867 
L 464.974716 56.312867 
L 465.374179 57.334081 
L 465.773642 56.312867 
L 467.770957 56.312867 
L 468.17042 57.518342 
L 468.569883 65.624199 
L 468.969346 56.312867 
L 469.368809 124.950866 
L 469.768272 126.610583 
L 470.567198 119.026126 
L 470.966661 119.527463 
L 471.765587 136.634935 
L 472.564513 127.204131 
L 472.963976 127.395467 
L 473.363439 133.556179 
L 473.762902 209.101844 
L 474.162365 209.162645 
L 474.561828 208.866137 
L 475.360754 208.84819 
L 475.760217 208.966972 
L 476.15968 209.252122 
L 478.156995 209.417193 
L 478.556457 209.267403 
L 478.95592 209.40986 
L 479.355383 209.366245 
L 480.154309 209.698287 
L 480.953235 209.620815 
L 481.752161 209.39883 
L 482.551087 209.366951 
L 482.95055 209.17602 
L 484.148939 209.371543 
L 485.347328 208.992726 
L 487.344643 208.865945 
L 487.744106 208.960283 
L 488.543032 208.747399 
L 489.341958 208.763929 
L 490.540347 209.178857 
L 491.738736 209.063322 
L 492.537662 209.050769 
L 492.937125 209.05303 
L 493.736051 209.199458 
L 494.534977 208.970807 
L 494.93444 208.996426 
L 495.333903 208.734114 
L 496.931755 208.55699 
L 498.529607 208.635385 
L 498.92907 208.701857 
L 499.328533 208.58922 
L 499.727996 208.709993 
L 500.526922 208.607961 
L 501.725311 208.260159 
L 502.524237 208.494151 
L 504.122089 208.518183 
L 504.521552 208.011177 
L 505.719941 207.865354 
L 506.119404 207.58227 
L 506.518867 300.849147 
L 506.91833 167.920035 
L 507.717256 106.819256 
L 508.116719 95.377076 
L 508.516182 72.636763 
L 508.915645 56.312867 
L 510.114034 56.312867 
L 510.513497 64.432227 
L 510.91296 56.312867 
L 519.701145 56.312867 
L 520.100608 106.023695 
L 520.500071 95.173641 
L 521.298997 56.312867 
L 521.69846 80.798364 
L 522.097923 63.749438 
L 522.497386 56.312867 
L 531.285572 56.312867 
L 531.685035 59.866609 
L 532.084498 56.312867 
L 532.483961 56.312867 
L 532.883424 57.022708 
L 533.282887 56.312867 
L 534.081813 56.312867 
L 534.481276 57.251308 
L 534.880739 56.312867 
L 536.079128 56.312867 
L 536.478591 56.522176 
L 536.878054 56.312867 
L 539.274832 56.312867 
L 539.674295 60.116664 
L 540.073758 71.014263 
L 540.473221 90.351079 
L 540.872684 74.932899 
L 541.272147 75.110991 
L 541.67161 71.178193 
L 542.071073 71.693386 
L 542.470536 63.095502 
L 543.269462 68.550212 
L 544.068388 56.312867 
L 544.467851 59.909291 
L 544.867314 56.312867 
L 546.465166 56.312867 
L 546.864629 58.33929 
L 547.264092 56.312867 
L 547.663555 67.478098 
L 548.063018 59.050153 
L 548.462481 58.094495 
L 548.861944 60.815529 
L 549.261407 60.906288 
L 549.660869 56.312867 
L 550.060332 56.805968 
L 550.459795 56.312867 
L 550.859258 64.739273 
L 551.258721 57.225483 
L 551.658184 60.063402 
L 552.057647 56.312867 
L 553.655499 56.312867 
L 554.054962 91.742743 
L 554.454425 73.88067 
L 554.853888 79.892517 
L 555.652814 71.225589 
L 556.052277 62.003817 
L 556.45174 68.638544 
L 557.250666 64.39662 
L 557.650129 56.312867 
L 558.049592 60.851563 
L 558.449055 56.312867 
L 558.848518 56.312867 
L 559.247981 57.531594 
L 559.647444 56.312867 
L 560.046907 56.312867 
L 560.44637 57.514783 
L 560.845833 56.312867 
L 561.644759 56.312867 
L 562.044222 57.47796 
L 562.443685 63.448737 
L 562.843148 61.337156 
L 563.242611 56.587963 
L 563.642074 56.312867 
L 564.840463 56.312867 
L 565.239926 74.716888 
L 565.639389 67.682932 
L 566.038852 64.26059 
L 566.438315 68.429423 
L 566.837778 67.269649 
L 567.237241 69.212593 
L 568.036167 56.312867 
L 568.43563 57.72642 
L 568.835093 56.539919 
L 569.234556 56.312867 
L 570.832408 56.312867 
L 571.231871 62.892703 
L 571.631334 56.312867 
L 572.43026 56.312867 
L 573.229186 64.323806 
L 573.628649 120.227902 
L 574.427575 120.287425 
L 574.827038 120.083219 
L 575.226501 120.051375 
L 576.42489 120.225622 
L 576.824353 120.079428 
L 577.223816 120.065995 
L 577.623279 119.295012 
L 578.022742 119.203121 
L 578.422205 118.888541 
L 579.221131 119.095199 
L 579.620594 118.851459 
L 580.41952 118.986343 
L 581.218446 119.087822 
L 581.617909 118.829801 
L 582.017372 118.866536 
L 582.416835 118.782385 
L 583.215761 118.306457 
L 583.615224 118.742511 
L 585.612538 118.583172 
L 586.411464 118.982044 
L 588.408779 118.868743 
L 588.808242 119.256258 
L 589.607168 118.872567 
L 590.006631 118.869477 
L 590.406094 118.403001 
L 590.805557 118.295518 
L 591.20502 118.445169 
L 591.604483 118.745409 
L 592.802872 118.853235 
L 593.202335 118.775179 
L 593.601798 118.95446 
L 594.400724 118.938264 
L 595.599113 119.444481 
L 595.998576 118.968449 
L 597.196965 118.8566 
L 597.995891 118.814059 
L 598.395354 118.685271 
L 599.19428 118.956762 
L 599.593743 118.596882 
L 599.993206 118.522076 
L 600.392669 118.706423 
L 601.990521 118.552613 
L 602.389984 118.259597 
L 602.789447 117.763011 
L 603.18891 117.646721 
L 603.588373 117.668732 
L 604.387299 117.431019 
L 604.786762 117.483717 
L 605.186225 117.232649 
L 605.585688 117.112902 
L 606.384614 117.114152 
L 607.583003 116.837789 
L 607.982466 117.024424 
L 609.180855 116.995609 
L 609.580318 116.778522 
L 609.979781 116.946462 
L 610.778707 116.944039 
L 611.977096 117.66328 
L 612.776022 117.21951 
L 613.175485 117.372288 
L 613.574948 117.253445 
L 613.974411 116.888975 
L 614.373874 116.870804 
L 615.1728 116.48423 
L 615.572263 116.550807 
L 616.371189 115.790312 
L 616.770652 116.324185 
L 617.170115 116.481352 
L 617.969041 116.450662 
L 618.368504 116.664415 
L 618.767967 117.10286 
L 619.16743 116.786994 
L 619.566893 117.008817 
L 619.966356 116.195718 
L 620.765282 116.488554 
L 621.164744 117.062397 
L 621.564207 116.759969 
L 621.96367 116.872139 
L 622.363133 116.773844 
L 622.762596 117.200127 
L 624.759911 116.887356 
L 625.159374 117.079202 
L 627.156689 117.009952 
L 628.355078 116.357899 
L 629.95293 116.470371 
L 630.751856 116.376815 
L 631.151319 116.579846 
L 631.950245 116.622937 
L 632.349708 117.011939 
L 632.749171 117.089448 
L 633.148634 117.003757 
L 633.548097 117.545839 
L 633.94756 117.366965 
L 634.347023 117.379884 
L 635.145949 116.876031 
L 635.545412 116.953759 
L 635.944875 116.45602 
L 636.743801 116.063603 
L 637.542727 115.968652 
L 637.94219 115.74185 
L 638.341653 116.174369 
L 638.741116 115.972036 
L 639.140579 116.219916 
L 639.540042 117.283551 
L 639.939505 117.519539 
L 640.338968 116.873312 
L 640.738431 116.797171 
L 642.336283 117.761118 
L 643.534672 117.344402 
L 644.333598 117.696402 
L 645.132524 117.345946 
L 645.531987 117.286188 
L 645.93145 116.910066 
L 646.330913 116.967855 
L 647.529302 117.645524 
L 648.328228 117.456407 
L 648.727691 117.394192 
L 649.526617 118.551058 
L 649.92608 118.273738 
L 650.325543 118.550739 
L 650.725006 118.301989 
L 651.124469 118.409099 
L 651.523932 118.084733 
L 651.923395 118.002156 
L 652.322858 118.343257 
L 652.722321 118.444721 
L 653.121784 118.730031 
L 653.521247 119.210271 
L 653.92071 119.08748 
L 654.719636 119.447385 
L 655.119099 119.313821 
L 655.518562 119.496543 
L 655.918025 120.019068 
L 656.317488 120.171881 
L 656.716951 120.204776 
L 657.515876 119.792801 
L 657.915339 119.856177 
L 658.314802 119.571415 
L 659.113728 119.541382 
L 659.912654 119.612713 
L 660.312117 120.060102 
L 660.71158 119.539073 
L 661.111043 119.231277 
L 661.510506 119.370672 
L 661.909969 119.657958 
L 662.708895 119.55038 
L 663.108358 119.485993 
L 663.507821 119.178699 
L 664.306747 119.260036 
L 664.70621 119.545276 
L 665.105673 119.520182 
L 665.904599 119.921548 
L 666.304062 119.817748 
L 666.703525 120.045674 
L 667.102988 120.09703 
L 667.502451 119.784704 
L 668.70084 119.733196 
L 669.100303 119.846926 
L 672.296007 119.827184 
L 674.692785 119.117916 
L 675.092248 119.393529 
L 676.290637 119.52549 
L 677.089563 119.460301 
L 677.489026 118.97863 
L 677.888489 118.839825 
L 678.687415 118.98627 
L 679.486341 119.133659 
L 679.885804 119.288391 
L 680.285267 119.794001 
L 680.68473 119.686348 
L 681.883119 119.727138 
L 682.282582 120.022456 
L 683.081508 119.665924 
L 683.480971 119.679317 
L 683.880434 120.162172 
L 684.279897 120.286133 
L 684.67936 120.900806 
L 685.078823 121.165021 
L 685.478286 120.979546 
L 686.277212 121.546928 
L 686.676675 122.564478 
L 687.076138 121.800867 
L 687.475601 121.872036 
L 688.274527 121.799623 
L 689.472916 122.211921 
L 689.872379 121.938346 
L 690.271842 121.841584 
L 690.671305 122.009183 
L 691.070768 121.980028 
L 691.869694 122.191886 
L 693.467545 122.101089 
L 693.867008 122.40513 
L 694.266471 122.44794 
L 694.665934 122.005425 
L 695.065397 122.061733 
L 695.46486 122.253613 
L 695.864323 122.144789 
L 696.263786 122.258732 
L 696.663249 121.964564 
L 697.062712 122.035887 
L 697.462175 121.593232 
L 699.060027 122.244464 
L 699.858953 121.873361 
L 701.456805 121.731783 
L 702.255731 121.261295 
L 702.655194 121.355487 
L 703.45412 121.793478 
L 703.853583 121.741074 
L 704.652509 122.011531 
L 705.051972 121.707012 
L 705.850898 121.663954 
L 706.649824 122.168795 
L 707.848213 122.114731 
L 708.247676 121.936463 
L 708.647139 121.924425 
L 709.046602 122.078666 
L 709.845528 122.041703 
L 710.244991 121.880337 
L 710.644454 121.895161 
L 711.043917 121.558052 
L 711.44338 121.661484 
L 712.641769 121.4462 
L 713.041232 121.686156 
L 713.440695 121.274068 
L 713.840158 121.334206 
L 715.038547 121.039839 
L 715.837473 121.404613 
L 716.236936 121.21629 
L 716.636399 121.168836 
L 717.035862 120.9948 
L 718.234251 121.084365 
L 718.633714 120.968079 
L 719.43264 121.19827 
L 720.231566 121.227935 
L 721.030492 121.007404 
L 721.429955 121.01168 
L 722.628344 120.777632 
L 723.027807 120.928821 
L 723.826733 120.851392 
L 724.226196 120.709411 
L 725.025122 120.906514 
L 725.424585 121.007326 
L 725.824048 120.859997 
L 726.622974 121.153399 
L 727.4219 121.278685 
L 728.220826 121.240864 
L 728.620288 121.232229 
L 729.019751 121.434061 
L 729.419214 121.306048 
L 730.21814 121.266912 
L 731.416529 121.620791 
L 732.614918 121.62152 
L 733.014381 121.786137 
L 733.413844 122.24558 
L 733.813307 122.477145 
L 734.21277 122.526911 
L 734.612233 122.894889 
L 735.011696 122.908457 
L 735.411159 122.640099 
L 735.810622 122.648109 
L 736.210085 122.794872 
L 736.609548 122.821316 
L 737.009011 122.625473 
L 737.807937 122.558167 
L 738.606863 122.328498 
L 739.405789 122.500953 
L 739.805252 122.642912 
L 740.604178 122.519945 
L 741.003641 122.620287 
L 741.403104 122.551894 
L 742.601493 122.990563 
L 744.199345 122.922892 
L 744.598808 123.069389 
L 746.19666 122.574125 
L 747.395049 122.570698 
L 747.794512 122.665845 
L 748.992901 122.517923 
L 749.392364 122.505535 
L 749.791827 122.638528 
L 750.19129 122.349302 
L 750.590753 122.346522 
L 751.389679 122.467542 
L 752.987531 122.205738 
L 753.786457 122.352753 
L 754.585383 122.409118 
L 754.984846 122.270391 
L 755.384309 122.439383 
L 756.582698 122.344036 
L 756.982161 122.528638 
L 758.18055 122.483175 
L 760.177865 122.332685 
L 762.17518 122.466422 
L 763.373569 122.516931 
L 763.773032 122.364285 
L 764.172494 122.349342 
L 764.571957 121.745534 
L 764.97142 121.411281 
L 765.370883 120.871978 
L 765.770346 121.036906 
L 766.569272 120.853301 
L 766.968735 120.918619 
L 767.767661 120.736496 
L 768.167124 120.968602 
L 768.566587 120.927932 
L 768.96605 120.999159 
L 769.365513 120.89554 
L 769.365513 120.89554 
" clip-path="url(#p2f04cbafb5)" style="fill: none; stroke: #2563a6; stroke-width: 1.8; stroke-linecap: square"/>
   </g>
   <g id="patch_3">
    <path d="M 54.646334 383.598655 
L 54.646334 40.727829 
" style="fill: none; stroke: #000000; stroke-width: 0.8; stroke-linejoin: miter; stroke-linecap: square"/>
   </g>
   <g id="patch_4">
    <path d="M 54.646334 383.598655 
L 803.39976 383.598655 
" style="fill: none; stroke: #000000; stroke-width: 0.8; stroke-linejoin: miter; stroke-linecap: square"/>
   </g>
   <g id="legend_1">
    <g id="patch_5">
     <path d="M 706.195072 63.728611 
L 796.39976 63.728611 
Q 798.39976 63.728611 798.39976 61.728611 
L 798.39976 47.727829 
Q 798.39976 45.727829 796.39976 45.727829 
L 706.195072 45.727829 
Q 704.195072 45.727829 704.195072 47.727829 
L 704.195072 61.728611 
Q 704.195072 63.728611 706.195072 63.728611 
z
" style="fill: #ffffff; opacity: 0.8; stroke: #cccccc; stroke-linejoin: miter"/>
    </g>
    <g id="line2d_24">
     <path d="M 708.195072 53.826267 
L 718.195072 53.826267 
L 728.195072 53.826267 
" style="fill: none; stroke: #2563a6; stroke-width: 1.8; stroke-linecap: square"/>
    </g>
    <g id="text_13">
     <text style="font-size: 10px; font-family: 'DejaVu Sans', 'Bitstream Vera Sans', 'Computer Modern Sans Serif', 'Lucida Grande', 'Verdana', 'Geneva', 'Lucid', 'Arial', 'Helvetica', 'Avant Garde', sans-serif; text-anchor: start" x="736.195072" y="57.326267" transform="rotate(-0 736.195072 57.326267)">Condicional</text>
    </g>
   </g>
  </g>
  <g id="text_14">
   <text style="font-size: 13px; font-family: 'DejaVu Sans', 'Bitstream Vera Sans', 'Computer Modern Sans Serif', 'Lucida Grande', 'Verdana', 'Geneva', 'Lucid', 'Arial', 'Helvetica', 'Avant Garde', sans-serif" transform="translate(304.494453 14.699478)">Caída desde el máximo previo</text>
   <text style="font-size: 13px; font-family: 'DejaVu Sans', 'Bitstream Vera Sans', 'Computer Modern Sans Serif', 'Lucida Grande', 'Verdana', 'Geneva', 'Lucid', 'Arial', 'Helvetica', 'Avant Garde', sans-serif" transform="translate(230.758047 30.303033)">OBSERVADO + SUPUESTOS PRESCRIPTOS · complete</text>
  </g>
  <g id="text_15">
   <text style="font-size: 8px; font-family: 'DejaVu Sans', 'Bitstream Vera Sans', 'Computer Modern Sans Serif', 'Lucida Grande', 'Verdana', 'Geneva', 'Lucid', 'Arial', 'Helvetica', 'Avant Garde', sans-serif; text-anchor: middle" x="403.2" y="412.677885" transform="rotate(-0 403.2 412.677885)">UTC · Motor observado: 2022-01-01T00:00:00Z a 2026-08-31T23:59:59.999999999Z</text>
  </g>
 </g>
 <defs>
  <clipPath id="p2f04cbafb5">
   <rect x="54.646334" y="40.727829" width="748.753426" height="342.870826"/>
  </clipPath>
 </defs>
</svg>
